<svg id="Layer_1" data-name="Layer 1" xmlns="http://www.w3.org/2000/svg" width="1268" height="791" viewBox="0 0 1268 791"><rect width="1268" height="791" rx="201.26" fill="#fcfbf0"/><rect x="278.5" y="-198.5" width="711" height="1188" rx="161.26" transform="translate(1029.5 -238.5) rotate(90)" fill="#099447"/><polygon points="289 394.23 634 175.23 979 395.23 634.07 615.77 289 394.23" fill="#ffcc08"/><path d="M779,395.5a145,145,0,1,1-282.78-45.29,142.84,142.84,0,0,1,9.23-21.85A145,145,0,0,1,779,393.7C779,394.3,779,394.9,779,395.5Z" fill="#322f80"/><path d="M779,393.7,496.22,350.21a142.84,142.84,0,0,1,9.23-21.85l271.33,41.73A145.65,145.65,0,0,1,779,393.7Z" fill="#fff"/></svg>