<svg width="53" height="53" viewBox="0 0 53 53" fill="none" xmlns="http://www.w3.org/2000/svg">
<path d="M17.0494 23.3549C17.0491 22.4844 17.3977 21.6483 18.0205 21.0258C18.6434 20.4033 19.491 20.0438 20.3817 20.0244C21.2725 20.005 22.1357 20.3271 22.7863 20.9218C23.437 21.5165 23.8235 22.3365 23.8629 23.2062C23.8651 23.2556 23.8663 23.3055 23.8663 23.3549C23.8663 23.4292 23.8638 23.5036 23.8587 23.5779H25.1673C25.5369 23.5779 25.8913 23.4345 26.1526 23.1791C26.414 22.9238 26.5608 22.5775 26.5608 22.2164V20.2581C26.5606 20.2013 26.5738 20.1453 26.5994 20.0943C26.625 20.0434 26.6623 19.9989 26.7084 19.9644C26.7545 19.9298 26.8082 19.9062 26.8652 19.8952C26.9222 19.8843 26.981 19.8864 27.0371 19.9013C27.4078 20.0021 27.7973 20.0177 28.1752 19.947C28.5531 19.8763 28.9092 19.7211 29.2156 19.4937C29.522 19.2663 29.7704 18.9727 29.9414 18.6359C30.1124 18.2991 30.2014 17.9283 30.2014 17.5523C30.2014 17.1764 30.1124 16.8055 29.9414 16.4687C29.7704 16.1319 29.522 15.8383 29.2156 15.6109C28.9092 15.3835 28.5531 15.2283 28.1752 15.1576C27.7973 15.0869 27.4078 15.1026 27.0371 15.2033C26.9811 15.2179 26.9225 15.2197 26.8657 15.2086C26.8089 15.1976 26.7555 15.1738 26.7096 15.1393C26.6637 15.1048 26.6265 15.0605 26.601 15.0097C26.5755 14.9589 26.5622 14.9031 26.5623 14.8465V12.8968C26.5623 12.7179 26.5262 12.5408 26.456 12.3756C26.3859 12.2103 26.2831 12.0602 26.1535 11.9338C26.024 11.8073 25.8702 11.7071 25.701 11.6388C25.5317 11.5705 25.3504 11.5354 25.1673 11.5356H23.1679C23.1098 11.5358 23.0525 11.5229 23.0004 11.4979C22.9482 11.4729 22.9027 11.4365 22.8674 11.3915C22.832 11.3465 22.8078 11.2941 22.7966 11.2384C22.7854 11.1828 22.7874 11.1253 22.8027 11.0706C22.905 10.7085 22.9204 10.3281 22.8475 9.95928C22.7746 9.59043 22.6154 9.24301 22.3825 8.94416C22.1495 8.6453 21.849 8.40309 21.5044 8.23642C21.1598 8.06975 20.7805 7.98313 20.396 7.98332C20.0115 7.98351 19.6322 8.0705 19.2878 8.23751C18.9434 8.40453 18.6432 8.64704 18.4105 8.94612C18.1778 9.24521 18.0191 9.59278 17.9466 9.9617C17.874 10.3306 17.8898 10.7109 17.9925 11.073C18.0074 11.1276 18.0093 11.1848 17.9979 11.2402C17.9865 11.2956 17.9622 11.3477 17.9269 11.3924C17.8916 11.4372 17.8462 11.4734 17.7942 11.4982C17.7423 11.523 17.6851 11.5358 17.6273 11.5356H15.6279C15.2584 11.5356 14.904 11.679 14.6426 11.9343C14.3813 12.1896 14.2345 12.5358 14.2344 12.8968V22.2164C14.2344 22.3952 14.2704 22.5722 14.3404 22.7374C14.4105 22.9026 14.5131 23.0527 14.6425 23.1791C14.7719 23.3056 14.9255 23.4058 15.0946 23.4743C15.2637 23.5427 15.4449 23.5779 15.6279 23.5779H17.0582C17.0523 23.5036 17.0494 23.4292 17.0494 23.3549Z" fill="#FDB71D"/>
<path d="M31.1147 37.7377C31.1031 37.4814 31.1331 37.2249 31.2036 36.9777C31.2188 36.9229 31.221 36.8655 31.2098 36.8098C31.1986 36.7541 31.1744 36.7016 31.139 36.6566C31.1036 36.6115 31.0581 36.5751 31.006 36.5501C30.9538 36.5251 30.8965 36.5121 30.8384 36.5124H28.835C28.6141 36.5129 28.3962 36.4619 28.1996 36.3637C27.7659 36.146 27.5173 35.6932 27.5319 35.2171C27.5319 35.1954 27.5319 35.1737 27.5319 35.1517V33.8173C27.6089 33.8226 27.6865 33.825 27.7638 33.825C28.6674 33.824 29.5338 33.4728 30.1727 32.8485C30.8117 32.2242 31.1712 31.3777 31.1722 30.4948V30.4234C31.1623 29.9731 31.0591 29.5294 30.8686 29.1192C30.6782 28.709 30.4046 28.3408 30.0644 28.0369C29.7241 27.733 29.3243 27.4997 28.8891 27.3511C28.4539 27.2024 27.9924 27.1416 27.5325 27.1723V25.569C27.532 25.4773 27.5499 25.3864 27.5851 25.3014C27.7921 24.8135 28.258 24.4713 28.8347 24.4713H38.3744C38.7439 24.4713 39.0983 24.6147 39.3596 24.8699C39.621 25.1252 39.7678 25.4714 39.7679 25.8325V27.786C39.7677 27.8425 39.7808 27.8983 39.8062 27.9491C39.8316 27.9998 39.8686 28.0442 39.9144 28.0787C39.9602 28.1132 40.0136 28.1369 40.0703 28.1481C40.127 28.1592 40.1855 28.1574 40.2414 28.1428C40.6119 28.0424 41.0012 28.0271 41.3788 28.0979C41.7564 28.1688 42.1121 28.3239 42.4182 28.5512C42.7243 28.7786 42.9725 29.0719 43.1435 29.4084C43.3144 29.7449 43.4035 30.1155 43.4036 30.4911C43.4038 30.8668 43.3152 31.2374 43.1446 31.5741C42.974 31.9108 42.7261 32.2044 42.4202 32.432C42.1144 32.6596 41.7588 32.8151 41.3813 32.8863C41.0037 32.9576 40.6145 32.9426 40.2439 32.8426C40.1878 32.8276 40.129 32.8256 40.072 32.8365C40.015 32.8474 39.9614 32.8711 39.9153 32.9056C39.8692 32.9402 39.8319 32.9847 39.8064 33.0356C39.7808 33.0866 39.7676 33.1426 39.7679 33.1994V35.1529C39.7673 35.5137 39.6203 35.8594 39.359 36.1143C39.0977 36.3692 38.7436 36.5124 38.3744 36.5124H36.378C36.3201 36.5122 36.2629 36.5251 36.2109 36.55C36.1589 36.575 36.1135 36.6113 36.0781 36.6561C36.0428 36.701 36.0185 36.7532 36.0072 36.8087C35.9959 36.8642 35.9978 36.9215 36.0128 36.9762C36.1174 37.3427 36.1327 37.7281 36.0576 38.1015C35.9824 38.4748 35.8188 38.8258 35.58 39.1263C35.3411 39.4269 35.0336 39.6686 34.682 39.8322C34.3304 39.9958 33.9444 40.0768 33.5551 40.0686C32.2465 40.0418 31.1707 39.0145 31.1147 37.7377Z" fill="#9CB8D4"/>
<path d="M20.4651 35.1893C20.8631 35.189 21.2554 35.282 21.6091 35.4603C21.9628 35.6386 22.2676 35.8971 22.498 36.2142C22.5659 36.3066 22.6553 36.3817 22.7589 36.4334C22.8625 36.4852 22.9773 36.5119 23.0936 36.5116H25.2278C25.5974 36.5116 25.9519 36.3681 26.2132 36.1128C26.4745 35.8575 26.6213 35.5112 26.6213 35.1501V33.1918C26.6211 33.135 26.6343 33.079 26.6599 33.028C26.6855 32.9771 26.7229 32.9326 26.769 32.898C26.8151 32.8635 26.8687 32.8398 26.9257 32.8289C26.9827 32.818 27.0416 32.82 27.0976 32.835C27.4683 32.9357 27.8579 32.9514 28.2358 32.8807C28.6137 32.81 28.9697 32.6548 29.2761 32.4274C29.5825 32.1999 29.8309 31.9064 30.0019 31.5696C30.1729 31.2328 30.2619 30.8619 30.2619 30.486C30.2619 30.11 30.1729 29.7392 30.0019 29.4024C29.8309 29.0656 29.5825 28.772 29.2761 28.5446C28.9697 28.3171 28.6137 28.162 28.2358 28.0913C27.8579 28.0206 27.4683 28.0362 27.0976 28.137C27.0417 28.1516 26.983 28.1534 26.9262 28.1423C26.8695 28.1312 26.816 28.1075 26.7701 28.073C26.7242 28.0385 26.6871 27.9942 26.6615 27.9434C26.636 27.8926 26.6228 27.8368 26.6229 27.7802V25.8305C26.6227 25.6517 26.5865 25.4747 26.5163 25.3095C26.4461 25.1444 26.3433 24.9943 26.2137 24.868C26.0842 24.7417 25.9305 24.6415 25.7613 24.5733C25.5921 24.505 25.4109 24.47 25.2278 24.4702H23.2284C23.1703 24.4704 23.113 24.4575 23.0609 24.4325C23.0088 24.4075 22.9633 24.3711 22.9279 24.326C22.8926 24.281 22.8684 24.2287 22.8571 24.173C22.8459 24.1173 22.848 24.0599 22.8632 24.0051C22.9656 23.643 22.9809 23.2627 22.908 22.8938C22.8351 22.525 22.676 22.1776 22.443 21.8787C22.21 21.5799 21.9095 21.3377 21.5649 21.171C21.2204 21.0043 20.841 20.9177 20.4565 20.9179C20.072 20.9181 19.6928 21.0051 19.3484 21.1721C19.004 21.3391 18.7037 21.5816 18.4711 21.8807C18.2384 22.1798 18.0796 22.5273 18.0071 22.8963C17.9346 23.2652 17.9503 23.6455 18.053 24.0075C18.068 24.0621 18.0698 24.1193 18.0584 24.1747C18.047 24.2302 18.0227 24.2822 17.9874 24.327C17.9521 24.3717 17.9067 24.4079 17.8548 24.4328C17.8028 24.4576 17.7457 24.4704 17.6879 24.4702H15.6884C15.3189 24.4702 14.9645 24.6136 14.7032 24.8689C14.4419 25.1241 14.295 25.4704 14.2949 25.8314V35.151C14.2949 35.5121 14.4417 35.8584 14.7031 36.1137C14.9644 36.369 15.3188 36.5125 15.6884 36.5125H17.8367C17.953 36.5128 18.0677 36.486 18.1713 36.4343C18.2749 36.3826 18.3644 36.3075 18.4322 36.2151C18.6625 35.8979 18.9673 35.6392 19.321 35.4607C19.6747 35.2822 20.067 35.1891 20.4651 35.1893Z" fill="#859037"/>
</svg>
