<svg id="Layer_1" data-name="Layer 1" xmlns="http://www.w3.org/2000/svg" width="1027.5" height="937.5" viewBox="0 0 1027.5 937.5"><path d="M1026.5,509.73V402.5H999c-69.89-157.2-260.65-270-485-270S98.87,245.3,29,402.5H.5v133h0c.35,222.06,230.11,402,513.5,402,283.6,0,513.5-180.21,513.5-402.5Q1027.5,522.27,1026.5,509.73Z" fill="#026745"/><ellipse cx="513.5" cy="402.5" rx="513.5" ry="402.5" fill="#718d3a"/><ellipse cx="513.5" cy="402.5" rx="513.5" ry="402.5" fill="#718d3a"/><path d="M513.5,725c-60.75,0-119.53-9.27-174.7-27.57-52.38-17.36-99.16-42-139-73.28C122.53,563.62,80,484.9,80,402.5s42.53-161.12,119.75-221.65c39.89-31.26,86.67-55.92,139.05-73.28C394,89.27,452.75,80,513.5,80S633,89.27,688.2,107.57c52.38,17.36,99.16,42,139,73.28C904.47,241.38,947,320.1,947,402.5S904.47,563.62,827.25,624.15c-39.89,31.26-86.67,55.92-139,73.28C633,715.73,574.25,725,513.5,725Z" fill="#859037"/><path d="M418.59,613.5c-28.63,0-50.65-25.88-45.44-54,0-.16.07-.33.1-.5a167.21,167.21,0,0,1,18.39-50.1q13.64-24.74,38.36-50.09t65.32-54.54q22.82-15.84,37.73-28.53t23.78-24.1a72.5,72.5,0,0,0,16.48-47.56q0-15.84-4.44-26.63a41.82,41.82,0,0,0-12.36-17.12,46.81,46.81,0,0,0-18.71-8.88A100.08,100.08,0,0,0,515,248.89q-28.53,0-45,16.16t-16.48,58.66h0c-51.66,0-81.53-59.93-49.19-100.21q2.75-3.42,5.75-6.64,35.82-38.36,101.14-38.36,31.69,0,58,7.61t45,22.83a103.53,103.53,0,0,1,29.17,38.36q10.47,23.16,10.47,54.22,0,24.11-6.35,43.75T626.9,384q-14.28,19-37.73,38.68T532.1,466.39a214.19,214.19,0,0,0-40.59,38.36q-16.5,20.61-17.75,37.1h109.7a71.65,71.65,0,0,1,71.65,71.65H418.59Z" fill="#f1eee7"/><path d="M418.59,603.5c-28.63,0-50.65-25.88-45.44-54,0-.16.07-.33.1-.5a167.21,167.21,0,0,1,18.39-50.1q13.64-24.74,38.36-50.09t65.32-54.54q22.82-15.84,37.73-28.53t23.78-24.1a72.5,72.5,0,0,0,16.48-47.56q0-15.84-4.44-26.63a41.82,41.82,0,0,0-12.36-17.12,46.81,46.81,0,0,0-18.71-8.88A100.08,100.08,0,0,0,515,238.89q-28.53,0-45,16.16t-16.48,58.66h0c-51.66,0-81.53-59.93-49.19-100.21q2.75-3.42,5.75-6.64,35.82-38.36,101.14-38.36,31.69,0,58,7.61t45,22.83a103.53,103.53,0,0,1,29.17,38.36q10.47,23.16,10.47,54.22,0,24.11-6.35,43.75T626.9,374q-14.28,19-37.73,38.68T532.1,456.39a214.19,214.19,0,0,0-40.59,38.36q-16.5,20.61-17.75,37.1h109.7a71.65,71.65,0,0,1,71.65,71.65H418.59Z" fill="#fcfbf0"/></svg>