<svg id="Layer_1" data-name="Layer 1" xmlns="http://www.w3.org/2000/svg" xmlns:xlink="http://www.w3.org/1999/xlink" width="1389.61" height="294.1" viewBox="0 0 1389.61 294.1"><defs><linearGradient id="linear-gradient" y1="188.99" x2="552.99" y2="188.99" gradientUnits="userSpaceOnUse"><stop offset="0" stop-color="#f7a11f"/><stop offset="1" stop-color="#fcd213"/></linearGradient><linearGradient id="linear-gradient-2" x1="452.57" y1="189.31" x2="1006.47" y2="189.31" xlink:href="#linear-gradient"/><linearGradient id="linear-gradient-3" x1="940.85" y1="189.62" x2="1289.77" y2="189.62" xlink:href="#linear-gradient"/><linearGradient id="linear-gradient-4" x1="1231.23" y1="209.03" x2="1389.61" y2="209.03" xlink:href="#linear-gradient"/></defs><path d="M549.83,83.87l-236.12.64h0L267,84.63c-1.56-.07-3.17-.12-4.83-.12l-90.55.63a91.17,91.17,0,0,0-9.92,1.27,93.12,93.12,0,0,0-24.79,8.45c-1.1.54-2.2,1.09-3.29,1.69q-10.9,4.32-27.47,20.65c-.69.67-1.38,1.36-2.07,2-.16.17-.31.33-.49.49s-.39.41-.59.62c-2.57,2.63-5.24,5.44-8,8.48-.32.44-.73,1.06-1.21,1.81a.24.24,0,0,1-.06.08Q91,134.7,76.88,159,71.6,168,64.73,180L52.64,201Q31.63,237.77,0,293.48v.62H59.52l.63-.62q27.24-49.4,29.77-51.92h89.29v1.15l-10.34,18.82-17.53,30.68.44.45-.44.82h58.25q1.93-1.92,38.58-65.71,5.64-9.78,12.08-21.06,5.72-9.94,12.05-21.05l10.76-18.82q10.44-17,16.35-29.13H404.19l-35.07,61.2-12.07,21L345,241,314.9,293.48v.62h58.9q.76,0,26.79-45.49,5.43-9.53,12-21.06,5.6-9.81,12-21.06,16.54-29.22,38.52-68.15h55.73l1.85-2.84,13.55-20.84L553,85.78V84.51Zm-339,102.59c0,1.84-1.72,3.11-5.14,3.81H119a8.29,8.29,0,0,1,1-2.72c1.18-2.35,3.36-6.08,6.57-11.21a98.49,98.49,0,0,1,5.43-9.85q18-28.78,48.38-28.78h29.77q9.12,0,14.38,1.82a11.45,11.45,0,0,1,6.52,5.77v5.07c0,2.13-1.72,6.23-5.13,12.29-.86,1.52-1.84,3.17-2.9,5-1.88,3.09-4.09,6.57-6.6,10.42Q213.91,182,210.86,186.46Z" fill="url(#linear-gradient)"/><path d="M1005.21,104.78q-9.66-20.27-43.69-20.27L871,85.14a91,91,0,0,0-34.71,9.72c-1.1.54-2.2,1.09-3.28,1.69q-6.26,2.46-14.38,8.91a166.22,166.22,0,0,0-13.1,11.74c-.69.67-1.38,1.36-2.06,2-.16.17-.32.33-.49.49l-.6.62c-2.57,2.63-5.24,5.44-8,8.48-.32.44-.73,1.06-1.2,1.81a.27.27,0,0,1-.07.08q-2.1,3-10.8,17.84-5,8.53-12.21,21-15.39,26.67-40.84,71.33h-188l9.91-17.13,45-78,12.16-21L630.5,86.41V85.14H571.62l-.64.64-18,31.43-12.08,21-31.3,54.53q-7.17,12.51-13.44,23.47-6.5,11.36-12,21.06-6.69,11.76-12,21.06Q452.56,293,452.57,294.1H758.88l.64-.62q5.22-9.47,9.52-17.2,7.2-12.94,11.88-21.08,7.13-12.4,8.36-13.64h89.29v1.15l-10.33,18.82-3,5.2-12,21.06-2.52,4.42.45.45-.45.82H909q1-1,11.67-19.18,14-24,44.94-78,5.73-10,12-21.05,2.37-4.16,4.82-8.44,13.73-22.35,19.62-36.3,4.43-10.5,4.43-16.26v-1.91Zm-95,81.68a2.76,2.76,0,0,1-1.06,2.15,9.43,9.43,0,0,1-4.09,1.66H818.4q0-1.7,7.09-13.1l.52-.83a86.91,86.91,0,0,1,13-20q16.44-18.62,40.84-18.61h29.76c6.1,0,10.88.6,14.38,1.82a11.45,11.45,0,0,1,6.52,5.77v5.07q0,3.16-5.06,12.18-1.33,2.34-3,5.12s0,0,0,.05Q917.69,175.51,910.23,186.46Z" fill="url(#linear-gradient-2)"/><path d="M1117.53,85.14q-41.31,0-72.19,31-7.54,9.83-13.68,18.43-20.73,29.1-25.45,44.58a27.58,27.58,0,0,0-1.39,7.91l2.52,9.5a22.3,22.3,0,0,0,5.35,6.18q9.67,7.74,30.12,7.75h93.08a57.25,57.25,0,0,1-4.81,8.43q-15.18,22-47.75,22H1027l-65.44,39-20.69,12.31v1.27l51.93.62H1084q16.77,0,39.26-7.59,24.38-7.75,48.12-36.09,9.09-13.39,15.35-23.87a159.89,159.89,0,0,0,11-21.19c1.83-4.5,2.74-8,2.74-10.66q0-7-2.53-11.41-7-13.92-45-13.93h-33.57l-50.65.64v-1.27q12.52-17.64,26.43-25.46a46.23,46.23,0,0,1,23-6.2h89.92l81.68-50.66V85.14Z" fill="url(#linear-gradient-3)"/><path d="M1331.19,194.33l7.72-17.73,5-11.44a29.64,29.64,0,0,0,2.67-11.72c0-10.3-7.07-17.52-18.94-17.56l-16.15,37-9.34,21.39-29.06-.09H1273c-11.69,0-24.8,6.91-33.77,16.9a45.73,45.73,0,0,0-8,12.19l58.15.19-7.07,16.21-5.81,13.28a29.46,29.46,0,0,0-2.67,11.68c0,10.32,7.11,17.54,19.06,17.58l16.91-38.79,8.66-19.88,12.19,0h0l17.2.05h.09c16,0,34.67-13,41.66-29.08Z" fill="url(#linear-gradient-4)"/><path d="M152.52,48.53a15.31,15.31,0,0,0,3.57,9.52,10.38,10.38,0,0,0,8.15,3.47A11.42,11.42,0,0,0,170.18,60a6.92,6.92,0,0,0,3.32-4.27h14.09a22.69,22.69,0,0,1-8.41,12.32,23.84,23.84,0,0,1-14.31,4.32Q139,72.37,139,44.15a32.66,32.66,0,0,1,1.69-10.84A23.31,23.31,0,0,1,145.57,25a21.16,21.16,0,0,1,7.83-5.32A28.57,28.57,0,0,1,164,17.83q12,0,18.15,7.68A27.54,27.54,0,0,1,187.3,37.3,9.48,9.48,0,0,1,178,48.68ZM174.23,40a14.33,14.33,0,0,0-1-5,10.49,10.49,0,0,0-2.36-3.58,9.51,9.51,0,0,0-3.37-2.1,11.27,11.27,0,0,0-3.89-.69,11.51,11.51,0,0,0-7.88,3A12.8,12.8,0,0,0,152.31,40Z" fill="#fcfbf0"/><path d="M193.32,58.62V0h0a13.59,13.59,0,0,1,13.42,13.75V72.37h0A13.59,13.59,0,0,1,193.32,58.62Z" fill="#fcfbf0"/><path d="M226.08,48.68a14.8,14.8,0,0,0,3.42,9.37,10.4,10.4,0,0,0,8.15,3.47A11.43,11.43,0,0,0,243.6,60a6.93,6.93,0,0,0,3.31-4.27H261a22.7,22.7,0,0,1-8.42,12.32,23.84,23.84,0,0,1-14.31,4.32q-25.87,0-25.87-28.22a32.93,32.93,0,0,1,1.68-10.84A23.31,23.31,0,0,1,219,25a21.11,21.11,0,0,1,7.84-5.32,28.51,28.51,0,0,1,10.62-1.84q12,0,18.15,7.68a27.42,27.42,0,0,1,5.12,11.79,9.47,9.47,0,0,1-9.26,11.38ZM247.65,40a14.57,14.57,0,0,0-1-5,10.66,10.66,0,0,0-2.37-3.58,9.34,9.34,0,0,0-3.37-2.1,11.27,11.27,0,0,0-3.89-.69,9.71,9.71,0,0,0-7.1,3,12.94,12.94,0,0,0-4,8.27Z" fill="#fcfbf0"/><path d="M300.29,72.37v-8.9c-3.51,5.77-8.63,8.65-15.86,8.65a17.8,17.8,0,0,1-7.1-1.37,15.8,15.8,0,0,1-5.52-3.9,18.66,18.66,0,0,1-3.63-6A22,22,0,0,1,266.87,53V31.49a13.7,13.7,0,0,1,13.67-13.73h0V50.9q0,9.72,8.73,9.72,5.26,0,7.94-3.33a13.35,13.35,0,0,0,3.11-8.5V31.38c0-7.52,5.65-13.62,13.15-13.62h0V72.37Z" fill="#fcfbf0"/><path d="M356.27,36.5h5.27V51.24a27.6,27.6,0,0,1-.82,8.23,18.36,18.36,0,0,1-3.79,6.64,18.18,18.18,0,0,1-6.52,4.58A23.94,23.94,0,0,1,341,72.37a24.93,24.93,0,0,1-9.68-1.68,18.46,18.46,0,0,1-6.58-4.53A17.25,17.25,0,0,1,321,59.53a30.24,30.24,0,0,1-1.55-8.39V18.29A13.48,13.48,0,0,1,332.93,4.81h0V18.07H349.1V28.5H332.93V49.77a14.69,14.69,0,0,0,2.23,8q1.83,2.68,6,2.68c2.73,0,5.39-.87,6.69-2.63s1.55-4.63,1.55-7.86V44C349.45,39.84,352.15,36.5,356.27,36.5Z" fill="#fcfbf0"/><path d="M380.66,48.79c.21,3.93.79,6.94,2.86,9.26a10.4,10.4,0,0,0,8.15,3.47A11.43,11.43,0,0,0,397.62,60c1.71-1,3.08-2.09,3.57-3.92h14.09a22.13,22.13,0,0,1-8.67,12,23.84,23.84,0,0,1-14.31,4.32c-17.25,0-25-9.8-25-28.61A29.71,29.71,0,0,1,369,33.46c1.12-3.23,2.23-6,4.37-8.32a21.11,21.11,0,0,1,7.84-5.32A28.48,28.48,0,0,1,391.85,18q12,0,18.15,7.68a27.42,27.42,0,0,1,5.12,11.79,9.44,9.44,0,0,1-9.26,11.34Zm21.4-8.59a14.81,14.81,0,0,0-1-5,10.66,10.66,0,0,0-2.37-3.58,9.48,9.48,0,0,0-3.37-2.1,11.27,11.27,0,0,0-3.89-.69,9.71,9.71,0,0,0-7.1,3,13,13,0,0,0-3.67,8.38Z" fill="#fcfbf0"/><path d="M437.78,19.57l0,3.53a.64.64,0,0,1-1.12.42,20.38,20.38,0,0,0-1.83-1.86A15.7,15.7,0,0,0,431,19.41a14.68,14.68,0,0,0-3.95-1,39.2,39.2,0,0,0-4.1-.21h-1.79V32.13a23.48,23.48,0,0,1,4.09-.31,12.48,12.48,0,0,1,12.22,12.51V58.76a13.64,13.64,0,0,0,13.67,13.61v-40C451.13,25.29,444.87,19.57,437.78,19.57Z" fill="#fcfbf0"/><path d="M483.24,18.21a39.2,39.2,0,0,0-4.1.21,14.61,14.61,0,0,0-3.94,1,15.52,15.52,0,0,0-3.79,2.25,13.53,13.53,0,0,0-1.77,1.72c-.69.79-1.24.59-1.24-.45V19.57h0c-7.08,0-13.35,5.72-13.35,12.77v40h0a13.65,13.65,0,0,0,13.68-13.61V45.33a13.25,13.25,0,0,1,14.75-13.4c.28,0,.55.06.83.09a.63.63,0,0,0,.72-.63V18.85a.64.64,0,0,0-.64-.64Z" fill="#fcfbf0"/><path d="M524.08,71a19.8,19.8,0,0,1-.82-4.48A16.48,16.48,0,0,1,517,70.79a23.93,23.93,0,0,1-9,1.58q-8.72,0-12.77-3.82a14.42,14.42,0,0,1-4.31-10.46,18.12,18.12,0,0,1,1.74-8.61,12.94,12.94,0,0,1,4.82-5,23.45,23.45,0,0,1,7.34-2.7c2.83-.58,5.93-1.11,9.28-1.58s5.6-1.11,6.76-1.89,1.75-2.83,1.75-4.6a4.25,4.25,0,0,0-2.31-3.82,12,12,0,0,0-6.2-1.38q-4.62,0-6.62,2A9.53,9.53,0,0,0,505,35.91h-6.06a5.34,5.34,0,0,1-5.09-7.07l0-.07a13.74,13.74,0,0,1,3.8-5.61,17.76,17.76,0,0,1,6.82-3.62,36.05,36.05,0,0,1,10.25-1.27,33.28,33.28,0,0,1,10.1,1.33,16.23,16.23,0,0,1,6.67,3.82,14.55,14.55,0,0,1,3.64,6.22,34.75,34.75,0,0,1,1.13,9.18V58.19c0,6.81-5.3,12.85-12.15,12.85ZM522.7,46.25a6.22,6.22,0,0,1-2.78,1.34,55.3,55.3,0,0,1-5.64,1.33q-5.75,1.11-7.9,2.85a6.06,6.06,0,0,0-2.15,5c0,3.73,2.41,6.12,6.72,6.12a12.88,12.88,0,0,0,4.77-.87c1.47-.57,2.47-1.87,3.54-2.86a11.8,11.8,0,0,0,2.56-3.47,9.4,9.4,0,0,0,.62-4.27Z" fill="#fcfbf0"/><path d="M139.93,190.27l120.32,16.44Q253.8,218,248.17,227.77L52.64,201l12.09-21,55.35,7.56Z" fill="#fde080"/><path d="M412.59,227.55q-6.55,11.52-12,21.06L345,241,357.05,220Z" fill="#fde080"/><path d="M484.11,237.32l284.93,39q-4.31,7.74-9.52,17.2l-.64.62H733.39L472.15,258.38Q477.4,249.08,484.11,237.32Z" fill="#fde080"/><polygon points="850.71 293.48 851.16 292.66 850.71 292.21 853.23 287.79 894.88 293.48 850.71 293.48" fill="#fde080"/><path d="M518.81,138.34H463.08q-22,39-38.52,68.15l-55.44-7.58,35.07-61.2H299.41q-5.91,12.14-16.35,29.13L272.3,185.66,216.5,178c2.51-3.85,4.72-7.33,6.6-10.42,1.06-1.79,2-3.44,2.9-5,3.41-6.06,5.13-10.16,5.13-12.29V145.3a11.45,11.45,0,0,0-6.52-5.77q-5.27-1.83-14.38-1.82H180.46q-30.33,0-48.38,28.78L76.88,159Q91,134.68,93.72,130.73a.24.24,0,0,0,.06-.08c.48-.75.89-1.37,1.21-1.81,2.75-3,5.42-5.85,8-8.48.2-.21.4-.41.59-.62s.33-.32.49-.49c.69-.69,1.38-1.38,2.07-2q16.55-16.33,27.47-20.65c1.09-.6,2.19-1.15,3.29-1.69a93.12,93.12,0,0,1,24.79-8.45l359,49.09Z" fill="#fde080"/><path d="M540.86,138.26l55.31,7.55-45,78-55-7.53q6.27-11,13.44-23.47Z" fill="#fde080"/><path d="M965.57,196.33q-30.89,54-44.94,78l-55.36-7.57,3-5.2,10.33-18.82v-1.15H789.28q-1.23,1.23-8.36,13.64L676.48,240.92h52.75q25.44-44.67,40.84-71.33l55.42,7.58q-7.08,11.42-7.09,13.1h86.68a9.43,9.43,0,0,0,4.09-1.66Z" fill="#fde080"/><path d="M1042.81,210.52q-20.43,0-30.12-7.75l56.74,7.75Z" fill="#fde080"/><path d="M1131.08,219l55.62,7.6q-6.24,10.47-15.35,23.87-23.73,28.34-48.12,36.09-22.47,7.61-39.26,7.59h-18.48l-104-14.2,65.44-39h56.35Q1115.93,240.92,1131.08,219Z" fill="#fde080"/><path d="M1309.8,243.38l-16.91,38.79c-12,0-19.06-7.26-19.06-17.58a29.46,29.46,0,0,1,2.67-11.68l5.81-13.28Z" fill="#fde080"/><polygon points="552.99 85.78 534.21 114.66 313.71 84.51 549.83 83.88 552.99 84.51 552.99 85.78" fill="#fde080"/><polygon points="571.62 85.14 630.5 85.14 630.5 86.42 608.33 124.79 552.94 117.21 570.98 85.78 571.62 85.14" fill="#fde080"/><path d="M818.59,105.46,1002,130.54q-5.88,14-19.62,36.3-2.46,4.28-4.82,8.44l-55.2-7.56s0,0,0-.05q1.65-2.78,3-5.12,5.05-9,5.06-12.18V145.3a11.45,11.45,0,0,0-6.52-5.77c-3.5-1.22-8.28-1.82-14.38-1.82H879.83q-24.39,0-40.84,18.61l-56.71-7.75q8.7-14.83,10.8-17.84a.27.27,0,0,0,.07-.08c.47-.75.88-1.37,1.2-1.81,2.75-3,5.42-5.85,8-8.48l.6-.62c.17-.16.33-.32.49-.49.68-.69,1.37-1.38,2.06-2A166.22,166.22,0,0,1,818.59,105.46Z" fill="#fde080"/><path d="M1198,183.29q2.52,4.43,2.53,11.41c0,2.62-.91,6.16-2.74,10.66l-191.53-26.18q4.69-15.48,25.45-44.58l63.54,8.67q-13.9,7.83-26.43,25.46V170l50.65-.64H1153Q1191,169.36,1198,183.29Z" fill="#fde080"/><path d="M1389.61,194.51c-7,16.09-25.61,29.08-41.66,29.08h-.09l-17.2-.05h0L1239.24,211c9-10,22.08-16.9,33.77-16.9h.07l29.06.09,9.34-21.39,27.43,3.76-7.72,17.73Z" fill="#fde080"/></svg>