<svg xmlns="http://www.w3.org/2000/svg" width="3780.13" height="1238.91" viewBox="0 0 3780.13 1238.91"><g id="Layer_1" data-name="Layer 1"><path d="M709.58,439.47c71.45,0,142.9.11,214.35-.18,6.48,0,8.39,2.18,9,8,4.49,40.4,5.52,80.78,1.62,121.33C929.74,619,918.36,667.69,898,714.14c-35.9,81.92-93.72,144-171.08,188.18-47.83,27.33-98.45,47.29-153,56.25-43.95,7.21-88.08,9.11-132.53,4.69C347.26,953.9,262.5,920.81,188,862.76,98.69,793.24,40.17,703.32,13.36,593.16c-9.08-37.3-14-75.27-13.29-113.6,2.12-109,35.6-207.36,103.53-293.09,71-89.62,162.81-147.22,273.88-173.74,47.29-11.29,95.39-14.82,144-11.58,100.23,6.69,190,40.9,269.64,101.79,8.58,6.55,16.62,13.8,25.06,20.54,3,2.39,3,3.86.23,6.7q-44.07,44.85-87.78,90c-2.93,3-4.47,2.84-7.5.17-48.47-42.52-104.23-70.2-167.89-81.16C447.41,121,351.85,145.16,268.6,212.76c-67,54.43-108.49,125.22-122.72,210.72C128.49,528,153.29,622.22,220,704.31,273.42,770.15,342.9,810.7,426.51,826.52a337.42,337.42,0,0,0,123.47.84c56.65-10.22,108.82-31.62,154-68,48.2-38.78,78.43-88.84,91-149.42,2.28-11,3.47-22.18,5.36-33.24.79-4.64-.5-6.16-5.48-6.15-34.93.08-69.86-.14-104.79-.3-65.59-.29-131.17-.66-196.75-.78-5,0-5.79-1.72-5.77-6.17.15-39,.21-78,0-117,0-5.65,1.48-7.05,7.07-7Q602.06,439.64,709.58,439.47Z" fill="#4970b6"/><path d="M2797.71,892.89c-21.56,18.46-43.74,34-68.39,45.71-65.18,30.94-131.24,30.88-197.76,4.85-31.48-12.33-61.44-28-87.13-50-28.72-24.62-51.33-54.74-70.47-87.36-20.29-34.56-34.65-71.42-40.85-111.08-8-51.13-1.85-100.83,17.85-148.67,19.77-48,47.66-90.58,86.52-125.42,41.93-37.61,89-65.73,145.13-76.33,51.83-9.78,100.88-1.09,147.57,22.57a314.09,314.09,0,0,1,63,42.39,20.76,20.76,0,0,0,2.16,1.47c1.64-2.26,1-4.58,1.05-6.71.41-12.15.38-24.31,1.46-36.45.37-4.12,1.52-5.79,5.58-5.22a13.61,13.61,0,0,0,2,0c37.64,0,75.28.16,112.92-.17,6.18-.05,7.3,1.81,7.3,7.56q-.24,286,0,572c.06,58.76-13.28,114-42.59,164.88-29.06,50.49-70.71,87.59-124.14,110.66-19.72,8.52-41.24,12.11-62.44,15.66a388.83,388.83,0,0,1-71.89,5.66c-103.43-1.95-184.06-45.22-240.48-132.45a408.6,408.6,0,0,1-22.9-41.19c-1.88-3.79-1.15-5.3,2.65-6.93q53.64-23.1,107.1-46.61c4.48-2,5.95-.71,7.95,3.2,17.19,33.48,39.31,62.87,71.33,83.72,26,16.9,54.2,23.27,85.25,20.62,19.55-1.67,38.94-3.07,57.58-9.41,50.21-17.07,81.43-52.26,96.75-102.31,10.77-35.19,11.13-71.34,9.21-107.64A60.4,60.4,0,0,0,2797.71,892.89Zm-156.82-50c52.56-1.3,95.15-23.8,127.28-65.47,34.47-44.72,46.76-95.82,39.42-151.6-6.67-50.64-29.08-92.83-68.62-125.67-49.89-41.45-123-46.87-178.63-12.91-67,40.91-96.24,119-87.85,190.74,4.67,39.94,19.39,75.91,45.89,106.53C2550.49,821.64,2590.83,841.74,2640.89,842.93Z" fill="#4970b6"/><path d="M2279.38,653.39c-.18,173.32-140.38,312.5-314.53,312.25-170.74-.26-310.33-140.74-310.38-312.36,0-173.09,140.15-312.81,313.53-312.49C2140,341.12,2279.56,481.19,2279.38,653.39Zm-488.22-10.22c-.07,57.79,15.38,100.93,45,137,64.32,78.24,179.24,84.06,251,12.7,70.63-70.23,76.14-186.8,12.44-263.42-54.53-65.59-144.55-83.21-216-40.53C1821.49,526,1793.51,583.32,1791.16,643.17Z" fill="#f3ad1d"/><path d="M1603.41,653.68c-.57,173.76-141.06,313.24-315.74,311.75-175-1.5-310.14-145-309.12-313.47,1-173.42,140.83-311.8,314.88-311.14C1464.36,341.47,1604,482.39,1603.41,653.68Zm-135.33,9.64c-.1-51.8-13.45-92.39-38.6-126.38-59.82-80.82-170.66-94.69-246.85-30.87-84,70.37-90.65,205.12-14,283.56,56.11,57.41,138.53,70.56,205.92,30.86C1437.41,783.48,1465.56,725.74,1468.08,663.32Z" fill="#e63327"/><path d="M3214.23,653.83c.37-140.42,89.46-262.66,219.6-298.83,99.51-27.66,206-2.61,279.65,91.24,29.23,37.23,49.8,79,66.05,123.25,1.78,4.85-.66,5.6-4,7-59.4,25.09-118.71,50.38-178.14,75.39q-110.26,46.4-220.74,92.3c-6.36,2.64-6.55,5-3.61,10.52,23.48,44.08,57.67,74.79,107.77,84.19,63.23,11.86,147.78-11,188.64-79.71,2.2-3.69,3.73-3.2,6.67-1.22q46.83,31.39,93.86,62.52c4,2.61,3.72,4.35,1.28,7.77-49.67,69.63-116,113.54-200.61,127.8-165.78,27.93-317.28-82.15-350.34-242.45-1.81-8.8-3.14-17.73-4.2-26.67A245.43,245.43,0,0,1,3214.23,653.83Zm132.38-24.66c-.16,3.61-.16,6.55-.46,9.46-.54,5.3.56,6.52,6.11,4.18q133.18-56.09,266.57-111.69c5.25-2.19,6.89-3.75,3.12-9.28-15.83-23.21-36.26-40.45-62.75-50.13-33.69-12.32-67.16-8.84-100.67,1.25-36,10.86-65.58,30.23-85.17,63.11C3356.14,565,3348.49,596.59,3346.61,629.17Z" fill="#e63327"/><path d="M3018.59,486.94q0-223.11-.14-446.22c0-6.53,1.19-8.78,8.35-8.71,40.11.39,80.23.29,120.35.07,5.63,0,7.73,1,7.73,7.31q-.24,448.23,0,896.48c0,6.31-2.14,7.32-7.74,7.29q-60.53-.33-121,0c-6.51.06-7.64-2.14-7.63-8Q3018.71,711.05,3018.59,486.94Z" fill="#269a48"/></g></svg>